<svg width="41" height="41" viewBox="0 0 41 41" fill="none" xmlns="http://www.w3.org/2000/svg">
<g clip-path="url(#clip0_73_157)">
<path d="M32.7552 8.44971V32.9603H31.2814V11.025L9.33541 32.971L8.25261 31.8882L30.2172 9.92359H8.24463V8.44971H32.7552Z" fill="#686868"/>
<path d="M20.5013 41C9.19713 41 0 31.8029 0 20.4987C0 9.19447 9.19713 0 20.5013 0C31.8055 0 41 9.19713 41 20.4987C41 31.8002 31.8029 41 20.5013 41ZM20.5013 1.33022C9.92875 1.33022 1.33022 9.92875 1.33022 20.4987C1.33022 31.0686 9.92875 39.6698 20.5013 39.6698C31.0739 39.6698 39.6698 31.0712 39.6698 20.4987C39.6698 9.92609 31.0712 1.33022 20.5013 1.33022Z" fill="#686868"/>
</g>
<defs>
<clipPath id="clip0_73_157">
<rect width="41" height="41" fill="white"/>
</clipPath>
</defs>
</svg>
