<svg width="41" height="41" fill="none" xmlns="http://www.w3.org/2000/svg"><g clip-path="url(#a)" fill="#686868"><path d="M32.7552 8.44922V32.9598h-1.4738V11.0245L9.33541 32.9705l-1.0828-1.0828L30.2172 9.9231H8.24463V8.44922H32.7552Z"/><path d="M20.5013 41C9.19713 41 0 31.8029 0 20.4987 0 9.19447 9.19713 0 20.5013 0 31.8055 0 41 9.19713 41 20.4987 41 31.8002 31.8029 41 20.5013 41Zm0-39.66978c-10.57255 0-19.17108 8.59853-19.17108 19.16848 0 10.5699 8.59853 19.1711 19.17108 19.1711 10.5726 0 19.1685-8.5986 19.1685-19.1711 0-10.57261-8.5986-19.16848-19.1685-19.16848Z"/></g><defs><clipPath id="a"><path fill="#fff" d="M0 0h41v41H0z"/></clipPath></defs></svg>