<svg width="32" height="45" viewBox="0 0 32 45" fill="none" xmlns="http://www.w3.org/2000/svg">
<path d="M0 16.1927C0.00801135 8.49362 5.70008 1.68833 13.1894 0.260442C21.3316 -1.29225 30.0372 4.23948 31.7316 13.2403C32.3205 16.3712 31.8838 19.4028 30.9799 22.3968C29.885 26.0215 28.1826 29.3671 26.2105 32.5772C23.6482 36.7468 20.6906 40.6185 17.4073 44.2392C16.49 45.251 15.558 45.2564 14.6488 44.2432C9.98882 39.051 5.88033 33.471 2.89343 27.1193C1.5769 24.3252 0.572812 21.4265 0.184261 18.3426C0.094801 17.63 0.0600851 16.9107 0 16.194V16.1927ZM16.0427 9.62627C12.487 9.62895 9.62564 12.5049 9.62697 16.0719C9.62831 19.6014 12.5004 22.4786 16.028 22.484C19.537 22.4894 22.4251 19.5879 22.4184 16.0625C22.4131 12.5116 19.5517 9.62359 16.0414 9.62627H16.0427Z" fill="#005EFE"/>
</svg>
