<?xml version="1.0" encoding="UTF-8"?><!DOCTYPE svg PUBLIC "-//W3C//DTD SVG 1.1//EN" "http://www.w3.org/Graphics/SVG/1.1/DTD/svg11.dtd"><svg xmlns="http://www.w3.org/2000/svg" xmlns:xlink="http://www.w3.org/1999/xlink"><defs>
<clipPath id="clip0_73_157">
<rect width="41" height="41" fill="white"/>
</clipPath>
</defs><symbol id="icon-arrow" viewBox="0 0 41 41"><g fill="none">
<g clip-path="url(#clip0_73_157)">
<path d="M32.7552 8.44971V32.9603H31.2814V11.025L9.33541 32.971L8.25261 31.8882L30.2172 9.92359H8.24463V8.44971H32.7552Z" fill="#686868"/>
<path d="M20.5013 41C9.19713 41 0 31.8029 0 20.4987C0 9.19447 9.19713 0 20.5013 0C31.8055 0 41 9.19713 41 20.4987C41 31.8002 31.8029 41 20.5013 41ZM20.5013 1.33022C9.92875 1.33022 1.33022 9.92875 1.33022 20.4987C1.33022 31.0686 9.92875 39.6698 20.5013 39.6698C31.0739 39.6698 39.6698 31.0712 39.6698 20.4987C39.6698 9.92609 31.0712 1.33022 20.5013 1.33022Z" fill="#686868"/>
</g>

</g></symbol><symbol id="icon-location" viewBox="0 0 32 45"><g fill="none">
<path d="M0 16.1927C0.00801135 8.49362 5.70008 1.68833 13.1894 0.260442C21.3316 -1.29225 30.0372 4.23948 31.7316 13.2403C32.3205 16.3712 31.8838 19.4028 30.9799 22.3968C29.885 26.0215 28.1826 29.3671 26.2105 32.5772C23.6482 36.7468 20.6906 40.6185 17.4073 44.2392C16.49 45.251 15.558 45.2564 14.6488 44.2432C9.98882 39.051 5.88033 33.471 2.89343 27.1193C1.5769 24.3252 0.572812 21.4265 0.184261 18.3426C0.094801 17.63 0.0600851 16.9107 0 16.194V16.1927ZM16.0427 9.62627C12.487 9.62895 9.62564 12.5049 9.62697 16.0719C9.62831 19.6014 12.5004 22.4786 16.028 22.484C19.537 22.4894 22.4251 19.5879 22.4184 16.0625C22.4131 12.5116 19.5517 9.62359 16.0414 9.62627H16.0427Z" fill="#005EFE"/>
</g></symbol><symbol id="icon-toggler" viewBox="0 0 32 16"><g fill="none">
<path d="M31 15L16 2L0.999999 15" stroke="black" stroke-width="2"/>
</g></symbol></svg>