<svg xmlns="http://www.w3.org/2000/svg" version="1.1" xmlns:xlink="http://www.w3.org/1999/xlink" xmlns:svgjs="http://svgjs.dev/svgjs" width="52" height="51"><svg width="52" height="51" viewBox="0 0 52 51" fill="none" xmlns="http://www.w3.org/2000/svg">
<path d="M25.9572 40.1558C34.1892 40.1558 40.8626 33.6079 40.8626 25.5306C40.8626 17.4534 34.1892 10.9054 25.9572 10.9054C17.7251 10.9054 11.0518 17.4534 11.0518 25.5306C11.0518 33.6079 17.7251 40.1558 25.9572 40.1558Z" fill="#005EFF"></path>
<path d="M25.9574 51C11.6407 51 0 39.5782 0 25.5306C0 11.4831 11.6407 0.0700188 25.9574 0.0700188C40.2741 0.0700188 51.9148 11.4918 51.9148 25.5394C51.9148 39.5869 40.2741 51.0088 25.9574 51.0088V51ZM25.9574 3.57096C13.612 3.57096 3.56803 13.4261 3.56803 25.5306C3.56803 37.6351 13.612 47.4991 25.9574 47.4991C38.3028 47.4991 48.3468 37.6439 48.3468 25.5306C48.3468 13.4174 38.3028 3.57096 25.9574 3.57096Z" fill="#005EFF"></path>
<path d="M44.6539 14.1088C48.6246 14.1088 51.8435 10.9504 51.8435 7.0544C51.8435 3.15836 48.6246 0 44.6539 0C40.6832 0 37.4644 3.15836 37.4644 7.0544C37.4644 10.9504 40.6832 14.1088 44.6539 14.1088Z" fill="white"></path>
<path d="M44.8588 10.4066C46.7456 10.4066 48.2752 8.90575 48.2752 7.0544C48.2752 5.20306 46.7456 3.70225 44.8588 3.70225C42.972 3.70225 41.4424 5.20306 41.4424 7.0544C41.4424 8.90575 42.972 10.4066 44.8588 10.4066Z" fill="#005EFF"></path>
</svg><style>@media (prefers-color-scheme: light) { :root { filter: none; } }
@media (prefers-color-scheme: dark) { :root { filter: none; } }
</style></svg>