<svg width="235" height="39" fill="none" xmlns="http://www.w3.org/2000/svg"><g clip-path="url(#a)"><path d="M19.7411 30.7074c6.2606 0 11.3359-5.0072 11.3359-11.184 0-6.1767-5.0753-11.18395-11.3359-11.18395S8.40527 13.3467 8.40527 19.5234c0 6.1768 5.07523 11.184 11.33583 11.184Z" fill="#005EFF"/><path d="M19.7411 39C8.85295 39 0 30.2657 0 19.5234 0 8.78119 8.85295.05354 19.7411.05354c10.8881 0 19.741 8.73434 19.741 19.47656 0 10.7423-8.8529 19.4766-19.741 19.4766V39Zm0-36.26926c-9.3889 0-17.02755 7.53626-17.02755 16.79266 0 9.2564 7.63865 16.7994 17.02755 16.7994 9.3888 0 17.0275-7.5363 17.0275-16.7994 0-9.2631-7.6387-16.79266-17.0275-16.79266Z" fill="#005EFF"/><path d="M33.96 10.7891c3.0198 0 5.4678-2.41523 5.4678-5.39456C39.4278 2.41522 36.9798 0 33.96 0c-3.0198 0-5.4678 2.41522-5.4678 5.39454 0 2.97933 2.448 5.39456 5.4678 5.39456Z" fill="#fff"/><path d="M34.1163 7.95795c1.4349 0 2.5982-1.14767 2.5982-2.56341 0-1.41573-1.1633-2.56341-2.5982-2.56341-1.435 0-2.5982 1.14768-2.5982 2.56341 0 1.41574 1.1632 2.56341 2.5982 2.56341ZM59.0468 21.7254v2.2622c0 1.3788-.3392 2.4363-1.0243 3.1725-.6852.7362-1.6892 1.1044-3.0189 1.1044-1.3296 0-2.3404-.3682-3.0188-1.1044-.6852-.7362-1.0244-1.7937-1.0244-3.1725v-8.8548c0-1.3787.3392-2.4362 1.0244-3.1724.6784-.7363 1.6892-1.1044 3.0188-1.1044 1.3297 0 2.3405.3681 3.0189 1.1044.6851.7362 1.0243 1.7937 1.0243 3.1724v1.6532h-2.5643v-1.8272c0-.6157-.1289-1.0508-.3799-1.2984-.2578-.2544-.597-.3748-1.0243-.3748-.4274 0-.7666.1271-1.0244.3748-.2578.2543-.3799.6827-.3799 1.2984v9.1962c0 .6157.1289 1.0441.3799 1.2917.2578.241.597.3614 1.0244.3614.4273 0 .7665-.1204 1.0243-.3614.2578-.2409.3799-.6693.3799-1.2917v-2.4296h2.5643ZM133.724 15.1395c0-1.3787.352-2.4362 1.058-3.1724.705-.7363 1.723-1.1044 3.059-1.1044 1.337 0 2.348.3681 3.06 1.1044.705.7362 1.058 1.7937 1.058 3.1724v8.8548c0 1.3788-.353 2.4363-1.058 3.1725-.706.7362-1.723 1.1044-3.06 1.1044-1.336 0-2.347-.3682-3.059-1.1044-.706-.7362-1.058-1.7937-1.058-3.1725v-8.8548Zm2.713 9.0222c0 .6157.129 1.0508.38 1.2984.258.2543.597.3748 1.024.3748.428 0 .767-.1272 1.025-.3748.258-.2543.38-.6827.38-1.2984v-9.1962c0-.6157-.129-1.0508-.38-1.2984-.258-.2544-.597-.3748-1.025-.3748-.427 0-.766.1271-1.024.3748-.258.2543-.38.6827-.38 1.2984v9.1962ZM96.0665 10.8761c1.445 0 2.4897.3346 3.1409.9972.6445.6627.9706 1.6666.9706 3.0119v.6224c0 .8969-.143 1.6331-.4279 2.2154-.2849.5823-.7394 1.0107-1.3635 1.2918.7598.2811 1.2889.7429 1.601 1.3787.3124.6358.4684 1.4256.4684 2.3492v1.419c0 1.3452-.353 2.3693-1.0586 3.072-.7055.7028-1.757 1.0575-3.1545 1.0575h-4.362V10.8761h4.1856Zm-1.411 2.4898v4.6048h1.0854c.5223 0 .9294-.1339 1.2211-.3949.2917-.2611.4409-.7496.4409-1.4457v-.9705c0-.6291-.1153-1.0843-.3392-1.3654-.2238-.2811-.5834-.4216-1.0718-.4216h-1.3364v-.0067Zm0 7.0945v5.3477h1.5874c.4681 0 .8276-.1271 1.0718-.3748.2443-.2476.3664-.696.3664-1.3453v-1.5193c0-.8098-.1357-1.3653-.4138-1.6665-.2782-.3012-.7327-.4485-1.3772-.4485h-1.2346v.0067ZM213.957 10.9029v17.3749h-2.714V16.6856l-3.358 11.5922h-2.714V10.9029h2.714v11.2107l3.358-11.2107h2.714ZM194.86 10.9029v17.3749h-2.714V16.6856l-3.358 11.5922h-2.713V10.9029h2.713v11.2107l3.358-11.2107h2.714ZM110.842 10.9029v17.3749h-2.714V16.6856l-3.358 11.5922h-2.713V10.9029h2.713v11.2107l3.358-11.2107h2.714ZM221.887 19.5167l2.917 8.7611h-2.694l-2.34-7.7103h-1.038v7.7103h-2.713V10.9029h2.713v7.476h1.337c.278-.4484.59-1.024.82-1.6331.468-1.2449.373-3.4335 1.032-4.4776.99-1.5795 2.883-1.3653 2.883-1.3653v2.6437s-.713-.1941-1.086.502c-.529.9838-.061 1.439-.698 3.3933-.394 1.2248-.937 1.8673-1.133 2.0748ZM121.75 25.594V10.8694h-7.503v11.2844c0 1.3787-.353 2.4362-1.058 3.1724-.095.1004-.197.1874-.299.2678h-1.302v5.4012h2.652v-2.724h6.153v2.724h2.653V25.594h-1.296Zm-5.712 0c.57-.7028.902-1.5863.902-2.5568v-9.4906h2.097V25.594h-2.999ZM90.4835 26.2833v4.6851H87.77v-2.6906h-7.3877V10.9029h2.7136v14.6978h3.3173V10.9029h2.7135v15.3804h1.3568ZM69.4195 10.9029v17.3749h-2.7136V13.5801h-2.6457v14.6977h-2.7135V10.9029h8.0728ZM127.11 13.5801v4.665h4.131v2.6772h-4.131v4.6717h4.809v2.6772h-4.809v.0066h-2.714V10.9029h7.523v2.6772h-4.809ZM74.3039 13.5801v4.665h4.1314v2.6772h-4.1314v4.6717h4.8097v2.6772h-4.8097v.0066h-2.7136V10.9029h7.5233v2.6772h-4.8097ZM162.413 10.9029v17.3749h-2.714v-7.9713h-2.713v7.9713h-2.714V10.9029h2.714v7.3489h2.713v-7.3489h2.714ZM231.486 10.8962h-2.592l-3.514 17.3816h2.259l.787-3.902h3.528l.787 3.902H235l-3.514-17.3816Zm-2.646 11.4182 1.35-6.6796 1.35 6.6796h-2.7ZM170.119 10.8962h-2.591l-3.514 17.3816h2.259l.787-3.902h3.527l.787 3.902h2.259l-3.514-17.3816Zm-2.646 11.4182 1.35-6.6796 1.35 6.6796h-2.7ZM149.584 10.8962h-2.591l-3.514 17.3816h2.259l.787-3.902h3.528l.787 3.902h2.259l-3.515-17.3816Zm-2.645 11.4182 1.35-6.6796 1.35 6.6796h-2.7ZM204.513 10.9029v2.6772h-3.032v14.6977h-2.714V13.5801h-3.025v-2.6772h8.771ZM183.809 10.8962v17.3816h-2.714V12.8974h-2.143v10.5682c0 2.6705-2.205 4.8457-4.912 4.8457V26.029c1.431 0 2.598-1.1512 2.598-2.5634V10.8962h7.171Z" fill="#005EFF"/></g><defs><clipPath id="a"><path fill="#fff" d="M0 0h235v39H0z"/></clipPath></defs></svg>